<svg width="247" height="299" viewBox="0 0 247 299" fill="none" xmlns="http://www.w3.org/2000/svg">
<path d="M193.436 0C198.549 1.48223 203.312 2.6709 207.816 4.4988C225.007 11.4757 236.864 23.9335 242.543 41.4382C250.694 66.5641 245.225 89.1015 226.446 107.651C219.714 114.301 211.272 119.236 203.535 124.849C192.147 133.111 180.691 141.279 169.303 149.46C187.816 162.799 206.832 175.658 224.85 189.789C236.243 198.724 242.415 211.529 244.961 225.987C247.58 240.853 245.265 254.811 237.883 267.854C228.591 284.273 214.552 294.365 196.014 297.985C175.147 302.061 157.219 295.826 140.464 283.269C114.305 263.665 87.5838 244.81 61.067 225.685C49.127 217.073 36.9515 208.78 25.1618 199.969C11.8524 190.023 2.96417 177.13 0.286708 160.14C-0.0955693 153.312 -0.0955693 146.625 0.286708 139.329C2.89506 122.44 11.0618 109.396 23.8835 99.7215C42.8581 85.4037 62.4368 71.887 81.744 58.0093C95.6657 48.0027 109.494 37.8643 123.496 27.9722C133.908 20.617 144.272 13.1314 155.173 6.5594C160.474 3.36303 166.957 2.12471 172.904 0C179.592 0 186.28 0 193.436 0ZM59.2108 211.203C90.431 233.64 121.639 256.096 152.878 278.507C164.767 287.036 177.744 290.944 192.474 287.98C215.02 283.443 232.258 266.841 234.734 242.681C236.794 222.578 229.432 206.062 212.67 194.047C172.898 165.541 133.176 136.966 93.4885 108.343C80.3772 98.8865 65.9368 96.0749 50.2354 99.079C29.9641 102.957 11.0638 124.143 9.95393 144.556C8.90651 163.82 16.0983 179.535 31.4977 191.222C40.378 197.961 49.554 204.311 59.2108 211.203ZM72.5442 78.128C68.6362 80.9976 64.7282 83.8672 59.8161 87.474C61.8532 87.7966 62.4555 87.9948 63.0488 87.9709C77.3367 87.3958 89.5552 92.663 100.883 100.91C120.263 115.02 139.795 128.919 159.232 142.885C159.828 142.598 160.312 142.445 160.704 142.164C178.967 129.06 197.479 116.285 215.41 102.741C235.777 87.3547 239.865 61.0603 230.159 39.731C216.526 9.77201 178.072 2.31381 153.442 19.9974C126.661 39.2246 99.9094 58.4912 72.5442 78.128Z" fill="#101011"/>
<path d="M58.9038 211.019C49.554 204.311 40.3779 197.961 31.4977 191.222C16.0983 179.535 8.90646 163.82 9.95388 144.556C11.0638 124.143 29.9641 102.957 50.2353 99.079C65.9368 96.0749 80.3771 98.8865 93.4885 108.343C133.176 136.966 172.898 165.541 212.67 194.047C229.432 206.062 236.794 222.578 234.734 242.681C232.258 266.841 215.02 283.443 192.474 287.98C177.744 290.944 164.767 287.036 152.878 278.507C121.638 256.096 90.431 233.64 58.9038 211.019Z" fill="#4285F3"/>
<path d="M72.8445 77.9343C99.9093 58.4912 126.661 39.2246 153.442 19.9974C178.072 2.31382 216.526 9.77202 230.159 39.731C239.865 61.0603 235.777 87.3548 215.41 102.741C197.479 116.285 178.967 129.06 160.704 142.164C160.312 142.445 159.828 142.598 159.232 142.885C139.795 128.919 120.263 115.02 100.883 100.91C89.5551 92.663 77.3366 87.3958 63.0488 87.9709C62.4554 87.9948 61.8532 87.7966 59.816 87.474C64.7281 83.8672 68.6361 80.9976 72.8445 77.9343Z" fill="#E94335"/>
</svg>
