<svg width="247" height="299" viewBox="0 0 247 299" fill="none" xmlns="http://www.w3.org/2000/svg">
<path d="M73.096 0C78.9308 1.85501 84.8071 2.86575 89.5594 5.73688C100.178 12.1523 110.4 19.2684 120.492 26.5043C147.194 45.6482 173.789 64.9427 200.326 84.3146C210.286 91.5851 220.383 98.7597 229.663 106.845C239 114.98 243.434 126.268 245.506 138.269C249.548 161.667 242.316 181.541 224.704 197.073C215.513 205.178 204.958 211.743 194.972 218.937C175.024 233.309 155.06 247.659 135.07 261.972C121.265 271.857 107.662 282.058 93.4662 291.349C85.9061 296.296 76.9537 298.45 67.7776 299.017C56.02 299.744 44.6164 298.276 34.0949 292.803C15.4568 283.108 3.71946 267.586 0.815009 247.019C-2.99298 220.055 7.21168 198.587 29.926 183.024C45.6692 172.237 60.9844 160.826 76.7067 149.538C61.7528 138.682 47.2521 127.55 32.1224 117.352C18.8898 108.433 8.20283 97.7165 3.40287 82.2796C-2.88775 62.0487 -0.672358 42.763 11.8546 25.2867C20.3705 13.4061 31.7141 5.34629 46.0717 1.84993C47.798 1.42955 49.5513 1.12037 51.4283 0.379826C58.5855 1.01328e-06 65.6065 1e-06 73.096 0ZM235.673 149.498C235.659 132.754 229.353 118.688 215.904 108.875C174.478 78.6495 132.711 48.8921 91.0694 18.9633C79.1665 10.4084 65.4238 8.91576 51.8889 11.6336C30.528 15.923 16.6791 29.784 12.0413 50.9978C7.46137 71.9464 14.1898 89.8244 31.2699 103.189C39.3934 109.546 47.9706 115.323 56.3517 121.35C89.0647 144.873 121.613 168.631 154.567 191.812C171.366 203.629 189.743 204.674 207.972 195.216C225.852 185.941 234.972 170.655 235.673 149.498ZM46.7451 286.656C51.2528 287.437 55.7442 288.758 60.2714 288.895C72.7449 289.272 83.9317 285.272 94.04 277.973C118.256 260.486 142.533 243.083 166.786 225.646C172.67 221.415 178.554 217.184 185.47 212.21C172.197 211.304 160.705 208.614 150.709 201.769C139.213 193.897 127.993 185.621 116.663 177.507C106.579 170.286 96.5076 163.046 86.5059 155.868C82.7149 158.592 79.3524 160.998 76.0004 163.419C60.6529 174.5 45.0873 185.295 30.0223 196.748C13.5707 209.256 6.28248 232.85 12.5943 251.52C18.2723 268.316 29.2482 280.128 46.7451 286.656Z" fill="#10110F"/>
<path d="M235.673 149.975C234.972 170.655 225.852 185.941 207.972 195.216C189.743 204.673 171.366 203.629 154.567 191.812C121.613 168.631 89.0647 144.873 56.3517 121.35C47.9707 115.323 39.3934 109.546 31.2699 103.189C14.1898 89.8244 7.46137 71.9464 12.0413 50.9978C16.6791 29.784 30.528 15.9229 51.8889 11.6336C65.4238 8.91574 79.1665 10.4084 91.0694 18.9633C132.711 48.892 174.478 78.6495 215.904 108.875C229.353 118.688 235.659 132.754 235.673 149.975Z" fill="#34A853"/>
<path d="M46.4528 286.377C29.2483 280.128 18.2724 268.316 12.5944 251.52C6.28252 232.85 13.5708 209.256 30.0223 196.748C45.0873 185.295 60.6529 174.5 76.0005 163.419C79.3525 160.998 82.7149 158.592 86.506 155.868C96.5076 163.046 106.579 170.286 116.663 177.507C127.993 185.621 139.213 193.897 150.709 201.769C160.705 208.614 172.197 211.304 185.47 212.21C178.554 217.184 172.67 221.415 166.786 225.646C142.534 243.083 118.256 260.486 94.04 277.973C83.9317 285.272 72.7449 289.272 60.2715 288.895C55.7442 288.758 51.2529 287.437 46.4528 286.377Z" fill="#F8AA00"/>
</svg>
